<mxfile host="app.diagrams.net" modified="2024-05-08T19:44:11.217Z" agent="Mozilla/5.0 (Windows NT 10.0; Win64; x64) AppleWebKit/537.36 (KHTML, like Gecko) Chrome/124.0.0.0 Safari/537.36" etag="HBAW-9TZUmI4l6DxKBDg" version="24.3.1" type="device">
  <diagram name="PÃ¡gina-1" id="_pwhA-htoCf0WOC57Qsh">
    <mxGraphModel dx="1120" dy="529" grid="1" gridSize="10" guides="1" tooltips="1" connect="1" arrows="1" fold="1" page="1" pageScale="1" pageWidth="827" pageHeight="1169" math="0" shadow="0">
      <root>
        <mxCell id="0" />
        <mxCell id="1" parent="0" />
        <mxCell id="Ozc9YLtwOkVSBtVxmq3U-49" style="edgeStyle=orthogonalEdgeStyle;rounded=0;orthogonalLoop=1;jettySize=auto;html=1;entryX=1;entryY=0.5;entryDx=0;entryDy=0;" edge="1" parent="1" source="Ozc9YLtwOkVSBtVxmq3U-1" target="Ozc9YLtwOkVSBtVxmq3U-14">
          <mxGeometry relative="1" as="geometry" />
        </mxCell>
        <mxCell id="Ozc9YLtwOkVSBtVxmq3U-50" style="edgeStyle=orthogonalEdgeStyle;rounded=0;orthogonalLoop=1;jettySize=auto;html=1;entryX=0;entryY=0.5;entryDx=0;entryDy=0;" edge="1" parent="1" source="Ozc9YLtwOkVSBtVxmq3U-1" target="Ozc9YLtwOkVSBtVxmq3U-40">
          <mxGeometry relative="1" as="geometry" />
        </mxCell>
        <mxCell id="Ozc9YLtwOkVSBtVxmq3U-1" value="Turma" style="rounded=0;whiteSpace=wrap;html=1;" vertex="1" parent="1">
          <mxGeometry x="460" y="220" width="120" height="60" as="geometry" />
        </mxCell>
        <mxCell id="Ozc9YLtwOkVSBtVxmq3U-15" style="edgeStyle=orthogonalEdgeStyle;rounded=0;orthogonalLoop=1;jettySize=auto;html=1;entryX=0;entryY=0.5;entryDx=0;entryDy=0;" edge="1" parent="1" source="Ozc9YLtwOkVSBtVxmq3U-2" target="Ozc9YLtwOkVSBtVxmq3U-14">
          <mxGeometry relative="1" as="geometry" />
        </mxCell>
        <mxCell id="Ozc9YLtwOkVSBtVxmq3U-2" value="Escola" style="rounded=0;whiteSpace=wrap;html=1;" vertex="1" parent="1">
          <mxGeometry x="120" y="220" width="120" height="60" as="geometry" />
        </mxCell>
        <mxCell id="Ozc9YLtwOkVSBtVxmq3U-7" style="edgeStyle=orthogonalEdgeStyle;rounded=0;orthogonalLoop=1;jettySize=auto;html=1;entryX=0.75;entryY=0;entryDx=0;entryDy=0;" edge="1" parent="1" source="Ozc9YLtwOkVSBtVxmq3U-3" target="Ozc9YLtwOkVSBtVxmq3U-2">
          <mxGeometry relative="1" as="geometry" />
        </mxCell>
        <mxCell id="Ozc9YLtwOkVSBtVxmq3U-3" value="&lt;u&gt;CNPJ&lt;/u&gt;" style="ellipse;whiteSpace=wrap;html=1;align=center;" vertex="1" parent="1">
          <mxGeometry x="180" y="130" width="60" height="40" as="geometry" />
        </mxCell>
        <mxCell id="Ozc9YLtwOkVSBtVxmq3U-4" value="nome" style="ellipse;whiteSpace=wrap;html=1;align=center;" vertex="1" parent="1">
          <mxGeometry x="110" y="130" width="60" height="40" as="geometry" />
        </mxCell>
        <mxCell id="Ozc9YLtwOkVSBtVxmq3U-9" style="edgeStyle=orthogonalEdgeStyle;rounded=0;orthogonalLoop=1;jettySize=auto;html=1;entryX=0;entryY=0.75;entryDx=0;entryDy=0;" edge="1" parent="1">
          <mxGeometry relative="1" as="geometry">
            <mxPoint x="60" y="199.99618083164125" as="sourcePoint" />
            <mxPoint x="120" y="266.14" as="targetPoint" />
            <Array as="points">
              <mxPoint x="60" y="221.14" />
              <mxPoint x="100" y="221.14" />
              <mxPoint x="100" y="266.14" />
            </Array>
          </mxGeometry>
        </mxCell>
        <mxCell id="Ozc9YLtwOkVSBtVxmq3U-5" value="telefone" style="ellipse;whiteSpace=wrap;html=1;align=center;" vertex="1" parent="1">
          <mxGeometry x="40" y="160" width="60" height="40" as="geometry" />
        </mxCell>
        <mxCell id="Ozc9YLtwOkVSBtVxmq3U-8" style="edgeStyle=orthogonalEdgeStyle;rounded=0;orthogonalLoop=1;jettySize=auto;html=1;entryX=0.158;entryY=0.05;entryDx=0;entryDy=0;entryPerimeter=0;" edge="1" parent="1" source="Ozc9YLtwOkVSBtVxmq3U-4" target="Ozc9YLtwOkVSBtVxmq3U-2">
          <mxGeometry relative="1" as="geometry" />
        </mxCell>
        <mxCell id="Ozc9YLtwOkVSBtVxmq3U-13" style="edgeStyle=orthogonalEdgeStyle;rounded=0;orthogonalLoop=1;jettySize=auto;html=1;" edge="1" parent="1" source="Ozc9YLtwOkVSBtVxmq3U-10" target="Ozc9YLtwOkVSBtVxmq3U-1">
          <mxGeometry relative="1" as="geometry" />
        </mxCell>
        <mxCell id="Ozc9YLtwOkVSBtVxmq3U-10" value="periudo" style="ellipse;whiteSpace=wrap;html=1;align=center;" vertex="1" parent="1">
          <mxGeometry x="540" y="130" width="60" height="40" as="geometry" />
        </mxCell>
        <mxCell id="Ozc9YLtwOkVSBtVxmq3U-12" style="edgeStyle=orthogonalEdgeStyle;rounded=0;orthogonalLoop=1;jettySize=auto;html=1;entryX=0.25;entryY=0;entryDx=0;entryDy=0;" edge="1" parent="1" source="Ozc9YLtwOkVSBtVxmq3U-11" target="Ozc9YLtwOkVSBtVxmq3U-1">
          <mxGeometry relative="1" as="geometry" />
        </mxCell>
        <mxCell id="Ozc9YLtwOkVSBtVxmq3U-11" value="&lt;u&gt;Codigo&lt;/u&gt;" style="ellipse;whiteSpace=wrap;html=1;align=center;" vertex="1" parent="1">
          <mxGeometry x="460" y="130" width="60" height="40" as="geometry" />
        </mxCell>
        <mxCell id="Ozc9YLtwOkVSBtVxmq3U-14" value="Contem" style="shape=rhombus;perimeter=rhombusPerimeter;whiteSpace=wrap;html=1;align=center;" vertex="1" parent="1">
          <mxGeometry x="290" y="220" width="120" height="60" as="geometry" />
        </mxCell>
        <mxCell id="Ozc9YLtwOkVSBtVxmq3U-17" value="N" style="text;html=1;align=center;verticalAlign=middle;resizable=0;points=[];autosize=1;strokeColor=none;fillColor=none;" vertex="1" parent="1">
          <mxGeometry x="430" y="218" width="30" height="30" as="geometry" />
        </mxCell>
        <mxCell id="Ozc9YLtwOkVSBtVxmq3U-18" value="1" style="text;html=1;align=center;verticalAlign=middle;resizable=0;points=[];autosize=1;strokeColor=none;fillColor=none;" vertex="1" parent="1">
          <mxGeometry x="240" y="218" width="30" height="30" as="geometry" />
        </mxCell>
        <mxCell id="Ozc9YLtwOkVSBtVxmq3U-58" style="edgeStyle=orthogonalEdgeStyle;rounded=0;orthogonalLoop=1;jettySize=auto;html=1;entryX=1;entryY=0.5;entryDx=0;entryDy=0;" edge="1" parent="1" source="Ozc9YLtwOkVSBtVxmq3U-22" target="Ozc9YLtwOkVSBtVxmq3U-30">
          <mxGeometry relative="1" as="geometry" />
        </mxCell>
        <mxCell id="Ozc9YLtwOkVSBtVxmq3U-65" style="edgeStyle=orthogonalEdgeStyle;rounded=0;orthogonalLoop=1;jettySize=auto;html=1;exitX=0.5;exitY=0;exitDx=0;exitDy=0;" edge="1" parent="1" source="Ozc9YLtwOkVSBtVxmq3U-22" target="Ozc9YLtwOkVSBtVxmq3U-41">
          <mxGeometry relative="1" as="geometry" />
        </mxCell>
        <mxCell id="Ozc9YLtwOkVSBtVxmq3U-22" value="professor" style="rounded=0;whiteSpace=wrap;html=1;" vertex="1" parent="1">
          <mxGeometry x="460" y="380" width="120" height="60" as="geometry" />
        </mxCell>
        <mxCell id="Ozc9YLtwOkVSBtVxmq3U-61" style="edgeStyle=orthogonalEdgeStyle;rounded=0;orthogonalLoop=1;jettySize=auto;html=1;" edge="1" parent="1" source="Ozc9YLtwOkVSBtVxmq3U-23" target="Ozc9YLtwOkVSBtVxmq3U-39">
          <mxGeometry relative="1" as="geometry" />
        </mxCell>
        <mxCell id="Ozc9YLtwOkVSBtVxmq3U-23" value="aula" style="rounded=0;whiteSpace=wrap;html=1;" vertex="1" parent="1">
          <mxGeometry x="465" y="585" width="120" height="60" as="geometry" />
        </mxCell>
        <mxCell id="Ozc9YLtwOkVSBtVxmq3U-46" style="edgeStyle=orthogonalEdgeStyle;rounded=0;orthogonalLoop=1;jettySize=auto;html=1;entryX=1;entryY=0.5;entryDx=0;entryDy=0;" edge="1" parent="1" source="Ozc9YLtwOkVSBtVxmq3U-24" target="Ozc9YLtwOkVSBtVxmq3U-40">
          <mxGeometry relative="1" as="geometry" />
        </mxCell>
        <mxCell id="Ozc9YLtwOkVSBtVxmq3U-24" value="sala" style="rounded=0;whiteSpace=wrap;html=1;" vertex="1" parent="1">
          <mxGeometry x="830" y="220" width="120" height="60" as="geometry" />
        </mxCell>
        <mxCell id="Ozc9YLtwOkVSBtVxmq3U-62" style="edgeStyle=orthogonalEdgeStyle;rounded=0;orthogonalLoop=1;jettySize=auto;html=1;" edge="1" parent="1" source="Ozc9YLtwOkVSBtVxmq3U-25" target="Ozc9YLtwOkVSBtVxmq3U-23">
          <mxGeometry relative="1" as="geometry" />
        </mxCell>
        <mxCell id="Ozc9YLtwOkVSBtVxmq3U-25" value="&lt;u&gt;Codigo&lt;/u&gt;" style="ellipse;whiteSpace=wrap;html=1;align=center;" vertex="1" parent="1">
          <mxGeometry x="384" y="595" width="60" height="40" as="geometry" />
        </mxCell>
        <mxCell id="Ozc9YLtwOkVSBtVxmq3U-35" style="edgeStyle=orthogonalEdgeStyle;rounded=0;orthogonalLoop=1;jettySize=auto;html=1;entryX=0.25;entryY=0;entryDx=0;entryDy=0;" edge="1" parent="1" source="Ozc9YLtwOkVSBtVxmq3U-26" target="Ozc9YLtwOkVSBtVxmq3U-24">
          <mxGeometry relative="1" as="geometry" />
        </mxCell>
        <mxCell id="Ozc9YLtwOkVSBtVxmq3U-26" value="&lt;u&gt;Codigo&lt;/u&gt;" style="ellipse;whiteSpace=wrap;html=1;align=center;" vertex="1" parent="1">
          <mxGeometry x="830" y="120" width="60" height="40" as="geometry" />
        </mxCell>
        <mxCell id="Ozc9YLtwOkVSBtVxmq3U-37" style="edgeStyle=orthogonalEdgeStyle;rounded=0;orthogonalLoop=1;jettySize=auto;html=1;entryX=0.75;entryY=0;entryDx=0;entryDy=0;" edge="1" parent="1" source="Ozc9YLtwOkVSBtVxmq3U-27" target="Ozc9YLtwOkVSBtVxmq3U-24">
          <mxGeometry relative="1" as="geometry" />
        </mxCell>
        <mxCell id="Ozc9YLtwOkVSBtVxmq3U-27" value="Nome" style="ellipse;whiteSpace=wrap;html=1;align=center;" vertex="1" parent="1">
          <mxGeometry x="890" y="120" width="60" height="40" as="geometry" />
        </mxCell>
        <mxCell id="Ozc9YLtwOkVSBtVxmq3U-57" style="edgeStyle=orthogonalEdgeStyle;rounded=0;orthogonalLoop=1;jettySize=auto;html=1;entryX=1;entryY=0.5;entryDx=0;entryDy=0;" edge="1" parent="1" source="Ozc9YLtwOkVSBtVxmq3U-28" target="Ozc9YLtwOkVSBtVxmq3U-22">
          <mxGeometry relative="1" as="geometry" />
        </mxCell>
        <mxCell id="Ozc9YLtwOkVSBtVxmq3U-28" value="&lt;u&gt;CPF&lt;/u&gt;" style="ellipse;whiteSpace=wrap;html=1;align=center;" vertex="1" parent="1">
          <mxGeometry x="615" y="390" width="60" height="40" as="geometry" />
        </mxCell>
        <mxCell id="Ozc9YLtwOkVSBtVxmq3U-29" value="endereco" style="ellipse;whiteSpace=wrap;html=1;align=center;" vertex="1" parent="1">
          <mxGeometry x="354" y="430" width="60" height="40" as="geometry" />
        </mxCell>
        <mxCell id="Ozc9YLtwOkVSBtVxmq3U-30" value="nome" style="ellipse;whiteSpace=wrap;html=1;align=center;" vertex="1" parent="1">
          <mxGeometry x="354" y="390" width="60" height="40" as="geometry" />
        </mxCell>
        <mxCell id="Ozc9YLtwOkVSBtVxmq3U-60" style="edgeStyle=orthogonalEdgeStyle;rounded=0;orthogonalLoop=1;jettySize=auto;html=1;entryX=0.5;entryY=1;entryDx=0;entryDy=0;" edge="1" parent="1" source="Ozc9YLtwOkVSBtVxmq3U-39" target="Ozc9YLtwOkVSBtVxmq3U-22">
          <mxGeometry relative="1" as="geometry" />
        </mxCell>
        <mxCell id="Ozc9YLtwOkVSBtVxmq3U-39" value="leciona" style="shape=rhombus;perimeter=rhombusPerimeter;whiteSpace=wrap;html=1;align=center;" vertex="1" parent="1">
          <mxGeometry x="460" y="500" width="120" height="60" as="geometry" />
        </mxCell>
        <mxCell id="Ozc9YLtwOkVSBtVxmq3U-40" value="pertence" style="shape=rhombus;perimeter=rhombusPerimeter;whiteSpace=wrap;html=1;align=center;" vertex="1" parent="1">
          <mxGeometry x="640" y="220" width="120" height="60" as="geometry" />
        </mxCell>
        <mxCell id="Ozc9YLtwOkVSBtVxmq3U-66" style="edgeStyle=orthogonalEdgeStyle;rounded=0;orthogonalLoop=1;jettySize=auto;html=1;exitX=0.5;exitY=0;exitDx=0;exitDy=0;" edge="1" parent="1" source="Ozc9YLtwOkVSBtVxmq3U-41" target="Ozc9YLtwOkVSBtVxmq3U-1">
          <mxGeometry relative="1" as="geometry" />
        </mxCell>
        <mxCell id="Ozc9YLtwOkVSBtVxmq3U-41" value="Leciona" style="shape=rhombus;perimeter=rhombusPerimeter;whiteSpace=wrap;html=1;align=center;" vertex="1" parent="1">
          <mxGeometry x="460" y="300" width="120" height="60" as="geometry" />
        </mxCell>
        <mxCell id="Ozc9YLtwOkVSBtVxmq3U-51" value="1" style="text;html=1;align=center;verticalAlign=middle;resizable=0;points=[];autosize=1;strokeColor=none;fillColor=none;" vertex="1" parent="1">
          <mxGeometry x="797" y="220" width="30" height="30" as="geometry" />
        </mxCell>
        <mxCell id="Ozc9YLtwOkVSBtVxmq3U-52" value="N" style="text;html=1;align=center;verticalAlign=middle;resizable=0;points=[];autosize=1;strokeColor=none;fillColor=none;" vertex="1" parent="1">
          <mxGeometry x="585" y="218" width="30" height="30" as="geometry" />
        </mxCell>
        <mxCell id="Ozc9YLtwOkVSBtVxmq3U-59" style="edgeStyle=orthogonalEdgeStyle;rounded=0;orthogonalLoop=1;jettySize=auto;html=1;entryX=0.067;entryY=1;entryDx=0;entryDy=0;entryPerimeter=0;" edge="1" parent="1" source="Ozc9YLtwOkVSBtVxmq3U-29" target="Ozc9YLtwOkVSBtVxmq3U-22">
          <mxGeometry relative="1" as="geometry" />
        </mxCell>
        <mxCell id="Ozc9YLtwOkVSBtVxmq3U-64" style="edgeStyle=orthogonalEdgeStyle;rounded=0;orthogonalLoop=1;jettySize=auto;html=1;" edge="1" parent="1" source="Ozc9YLtwOkVSBtVxmq3U-63" target="Ozc9YLtwOkVSBtVxmq3U-23">
          <mxGeometry relative="1" as="geometry" />
        </mxCell>
        <mxCell id="Ozc9YLtwOkVSBtVxmq3U-63" value="nome" style="ellipse;whiteSpace=wrap;html=1;align=center;" vertex="1" parent="1">
          <mxGeometry x="480" y="700" width="60" height="40" as="geometry" />
        </mxCell>
        <mxCell id="Ozc9YLtwOkVSBtVxmq3U-67" value="N" style="text;html=1;align=center;verticalAlign=middle;resizable=0;points=[];autosize=1;strokeColor=none;fillColor=none;" vertex="1" parent="1">
          <mxGeometry x="525" y="278" width="30" height="30" as="geometry" />
        </mxCell>
        <mxCell id="Ozc9YLtwOkVSBtVxmq3U-68" value="N" style="text;html=1;align=center;verticalAlign=middle;resizable=0;points=[];autosize=1;strokeColor=none;fillColor=none;" vertex="1" parent="1">
          <mxGeometry x="520" y="350" width="30" height="30" as="geometry" />
        </mxCell>
        <mxCell id="Ozc9YLtwOkVSBtVxmq3U-69" value="N" style="text;html=1;align=center;verticalAlign=middle;resizable=0;points=[];autosize=1;strokeColor=none;fillColor=none;" vertex="1" parent="1">
          <mxGeometry x="525" y="560" width="30" height="30" as="geometry" />
        </mxCell>
        <mxCell id="Ozc9YLtwOkVSBtVxmq3U-70" value="N" style="text;html=1;align=center;verticalAlign=middle;resizable=0;points=[];autosize=1;strokeColor=none;fillColor=none;" vertex="1" parent="1">
          <mxGeometry x="520" y="440" width="30" height="30" as="geometry" />
        </mxCell>
      </root>
    </mxGraphModel>
  </diagram>
</mxfile>
